<svg xmlns="http://www.w3.org/2000/svg" xmlns:xlink="http://www.w3.org/1999/xlink" viewBox="0 0 512 512"><use xlink:href="#C" fill="#303c42"/><path d="M320.322 255.225l169.15-154.456c.564 1.9 1.194 3.807 1.194 5.897v298.667c0 1.97-.624 3.746-1.126 5.56-28.508-27.187-113.985-108.226-169.22-155.668z" fill="#f2f2f2"/><path d="M469.333 85.333c1.572 0 2.957.573 4.432.897L271.48 270.708c-3.354 3.02-8.76 6.625-15.48 6.625s-12.125-3.604-15.5-6.635L38.228 86.232c1.478-.324 2.866-.898 4.44-.898h426.666z" fill="#fafafa"/><path d="M22.46 410.893c-.503-1.814-1.126-3.6-1.126-5.56V106.667c0-2.1.63-3.986 1.194-5.896L191.68 255.224C136.443 302.67 50.957 383.72 22.46 410.893z" fill="#f2f2f2"/><path d="M42.667 426.667c-1.704 0-3.22-.594-4.8-.974C67.304 397.62 153.334 316.107 207.6 269.684l18.63 16.858c8.792 7.938 19.083 12.125 29.77 12.125s20.98-4.188 29.76-12.115l18.64-16.868c54.268 46.418 140.286 127.926 169.742 156-1.6.38-3.104.974-4.8.974H42.667z" fill="#fafafa"/><linearGradient id="A" gradientUnits="userSpaceOnUse" x1="139.266" y1="-15.944" x2="527.833" y2="372.622"><stop offset="0" stop-opacity=".2"/><stop offset="1" stop-opacity="0"/></linearGradient><path d="M183.807 262.05l7.872-6.826L22.527 100.77l161.28 161.28zm305.666-161.28l-169.15 154.455c55.234 47.44 140.7 128.48 169.22 155.668.503-1.814 1.126-3.6 1.126-5.56V106.667c0-2.1-.63-3.987-1.194-5.897zM285.76 286.552c-8.78 7.927-19.073 12.115-29.76 12.115s-20.98-4.188-29.77-12.125l-18.63-16.858-8.67 7.5 149.495 149.493h120.9c1.706 0 3.22-.594 4.8-.974-29.456-28.083-115.474-109.6-169.742-156L285.75 286.56z" fill="url(#A)"/><linearGradient id="B" gradientUnits="userSpaceOnUse" x1="-15.095" y1="129.604" x2="527.097" y2="382.44"><stop offset="0" stop-color="#FFF" stop-opacity=".2"/><stop offset="1" stop-color="#FFF" stop-opacity="0"/></linearGradient><use xlink:href="#C" fill="url(#B)"/><defs><path id="C" d="M469.333 64H42.667C19.135 64 0 83.135 0 106.667v298.667C0 428.865 19.135 448 42.667 448h426.667c23.53 0 42.666-19.135 42.666-42.667V106.667C512 83.135 492.865 64 469.333 64z"/></defs></svg>