<svg xmlns="http://www.w3.org/2000/svg" viewBox="0 0 24 24"><path fill="#fff" d="M23.954 4.57a10 10 0 0 1-2.825.775 4.96 4.96 0 0 0 2.163-2.723 10.13 10.13 0 0 1-3.127 1.184 4.9 4.9 0 0 0-3.591-1.559 4.92 4.92 0 0 0-4.92 4.917 4.97 4.97 0 0 0 .127 1.124C7.7 8.094 4.066 6.13 1.64 3.16a4.82 4.82 0 0 0-.666 2.475 4.92 4.92 0 0 0 2.188 4.096c-.807-.026-1.566-.248-2.228-.616v.06c0 2.385 1.693 4.374 3.946 4.827-.413.1-.85.17-1.296.17-.314 0-.615-.03-.916-.086.63 1.953 2.445 3.377 4.604 3.417a9.87 9.87 0 0 1-6.102 2.105c-.4 0-.78-.023-1.17-.067 2.2 1.394 4.768 2.2 7.557 2.2 9.054 0 14-7.496 14-13.986 0-.2 0-.42-.015-.63a9.97 9.97 0 0 0 2.46-2.548l-.047-.02z"/></svg>